HIERARCHY
ROOT Hips
{
	OFFSET -0.001795 -0.223333 0.028219
	CHANNELS 6 Xposition Yposition Zposition Zrotation Yrotation Xrotation 
	JOINT LeftUpLeg
	{
		OFFSET 0.069520 -0.091406 -0.006815
		CHANNELS 3 Zrotation Yrotation Xrotation
		JOINT LeftLeg
		{
			OFFSET 0.034277 -0.375199 -0.004496
			CHANNELS 3 Zrotation Yrotation Xrotation
			JOINT LeftFoot
			{
				OFFSET -0.013596 -0.397961 -0.043693
				CHANNELS 3 Zrotation Yrotation Xrotation
				JOINT LeftToe
				{
					OFFSET 0.026358 -0.055791 0.119288
					CHANNELS 3 Zrotation Yrotation Xrotation
					End Site
					{
						OFFSET 0.000000 0.000000 0.000000
					}
				}
			}
		}
	}
	JOINT RightUpLeg
	{
		OFFSET -0.067670 -0.090522 -0.004320
		CHANNELS 3 Zrotation Yrotation Xrotation
		JOINT RightLeg
		{
			OFFSET -0.038290 -0.382569 -0.008850
			CHANNELS 3 Zrotation Yrotation Xrotation
			JOINT RightFoot
			{
				OFFSET 0.015774 -0.398415 -0.042312
				CHANNELS 3 Zrotation Yrotation Xrotation
				JOINT RightToe
				{
					OFFSET -0.025372 -0.048144 0.123348
					CHANNELS 3 Zrotation Yrotation Xrotation
					End Site
					{
						OFFSET 0.000000 0.000000 0.000000
					}
				}
			}
		}
	}
	JOINT Spine
	{
		OFFSET -0.002533 0.108963 -0.026696
		CHANNELS 3 Zrotation Yrotation Xrotation
		JOINT Spine1
		{
			OFFSET 0.005487 0.135180 0.001092
			CHANNELS 3 Zrotation Yrotation Xrotation
			JOINT Spine2
			{
				OFFSET 0.001457 0.052922 0.025425
				CHANNELS 3 Zrotation Yrotation Xrotation
				JOINT Neck
				{
					OFFSET -0.002778 0.213870 -0.042857
					CHANNELS 3 Zrotation Yrotation Xrotation
					JOINT Head
					{
						OFFSET 0.005152 0.064970 0.051349
						CHANNELS 3 Zrotation Yrotation Xrotation
						End Site
						{
							OFFSET 0.000000 0.000000 0.000000
						}
					}
				}
				JOINT LeftShoulder
				{
					OFFSET 0.078845 0.121749 -0.034090
					CHANNELS 3 Zrotation Yrotation Xrotation
					JOINT LeftArm
					{
						OFFSET 0.090977 0.030469 -0.008868
						CHANNELS 3 Zrotation Yrotation Xrotation
						JOINT LeftForeArm
						{
							OFFSET 0.259612 -0.012772 -0.027456
							CHANNELS 3 Zrotation Yrotation Xrotation
							JOINT LeftHand
							{
								OFFSET 0.249234 0.008986 -0.001171
								CHANNELS 3 Zrotation Yrotation Xrotation
								End Site
								{
									OFFSET 0.000000 0.000000 0.000000
								}
							}
						}
					}
				}
				JOINT RightShoulder
				{
					OFFSET -0.081759 0.118833 -0.038615
					CHANNELS 3 Zrotation Yrotation Xrotation
					JOINT RightArm
					{
						OFFSET -0.096012 0.032551 -0.009143
						CHANNELS 3 Zrotation Yrotation Xrotation
						JOINT RightForeArm
						{
							OFFSET -0.253742 -0.013329 -0.021401
							CHANNELS 3 Zrotation Yrotation Xrotation
							JOINT RightHand
							{
								OFFSET -0.255298 0.007772 -0.005559
								CHANNELS 3 Zrotation Yrotation Xrotation
								End Site
								{
									OFFSET 0.000000 0.000000 0.000000
								}
							}
						}
					}
				}
			}
		}
	}
}
MOTION
Frames: 7
Frame Time: 0.050000
0.000000 0.408340 0.000000 -4.042132 -3.179849 15.292814 18.111338 6.500261 -67.939540 -2.051660 -2.013931 135.662503 5.136053 4.676119 -16.460923 0.000000 0.000000 0.000000 -21.383115 -2.690006 -52.938648 6.439583 -7.259344 133.706018 -3.911398 -10.989149 6.115292 0.000000 0.000000 0.000000 -5.810875 1.335381 45.039022 6.497478 -0.321523 -29.922201 4.753842 7.608778 24.263603 -0.497296 3.181431 -41.796397 0.000000 0.000000 0.000000 -25.238166 -0.779136 -3.549896 -46.568673 -14.513312 -1.320768 28.011234 -77.619022 -18.892299 0.000000 0.000000 0.000000 14.519009 4.677620 2.933767 53.233564 22.149874 2.694097 -28.349852 54.656870 -9.005251 0.000000 0.000000 0.000000 
-0.001462 0.444890 0.001780 -4.801837 -3.682230 16.970214 15.982690 5.235310 -66.659571 -0.645109 -4.632054 128.806396 6.781846 8.026949 -20.648271 0.000000 0.000000 0.000000 -19.115119 -1.486954 -52.587998 8.620722 -11.284861 126.979981 -7.408853 -17.818709 0.366585 0.000000 0.000000 0.000000 -5.255033 1.154285 43.420014 4.336099 0.155126 -31.639884 6.733447 6.225664 25.122569 0.525612 2.611260 -43.089910 0.000000 0.000000 0.000000 -25.535457 -0.871067 -2.920095 -48.074865 -15.990538 -0.942443 28.354239 -73.180171 -16.935705 0.000000 0.000000 0.000000 16.250464 5.542397 3.130180 52.775748 21.181181 2.128043 -35.731746 56.006988 -13.466796 0.000000 0.000000 0.000000 
-0.002869 0.487474 0.004348 -2.824438 -1.525134 16.861863 13.519934 2.549664 -65.617515 -0.792576 -4.590657 122.111011 8.133770 12.361777 -22.993722 0.000000 0.000000 0.000000 -21.092731 -2.846223 -50.002032 10.195982 -14.896850 120.160381 -7.992178 -19.181127 -3.190245 0.000000 0.000000 0.000000 -2.975284 -0.286037 40.291494 4.431638 -0.004700 -29.182970 1.772731 5.635317 23.613547 2.248156 2.037199 -41.540638 0.000000 0.000000 0.000000 -29.596328 -1.771930 -3.009130 -45.479593 -17.753777 -0.246838 26.033511 -68.789906 -14.051776 0.000000 0.000000 0.000000 21.819471 7.231306 4.525378 48.753147 22.524899 1.968338 -36.218464 53.312806 -13.067795 0.000000 0.000000 0.000000 
-0.003779 0.535117 0.006589 -2.336898 -2.408501 15.415773 11.707202 1.522234 -60.499687 -0.444349 -3.711199 113.930988 8.435572 12.636255 -26.536488 0.000000 0.000000 0.000000 -18.181858 -1.418627 -48.549053 11.121578 -13.436186 113.203602 -10.455883 -25.399646 -3.031807 0.000000 0.000000 0.000000 -3.827450 0.203677 39.018439 3.714200 0.233052 -31.384349 2.781607 4.216382 25.340782 1.565710 2.004659 -40.921632 0.000000 0.000000 0.000000 -31.328058 1.165092 -4.480702 -45.913887 -17.239295 -0.800186 23.100478 -69.195869 -11.495994 0.000000 0.000000 0.000000 21.182755 6.576594 3.575427 49.811482 23.468341 2.357896 -33.700472 51.249490 -11.510272 0.000000 0.000000 0.000000 
-0.004972 0.597482 0.009476 -1.348155 -2.219096 16.569474 11.306000 1.052698 -57.370092 -0.505448 -2.597687 103.280491 7.606541 9.555114 -26.371075 0.000000 0.000000 0.000000 -18.033291 -1.186896 -44.534312 12.401755 -12.879052 101.731116 -10.164325 -26.106302 -10.064599 0.000000 0.000000 0.000000 -3.659561 0.101221 34.954816 3.665973 0.230175 -30.904071 1.773552 3.322909 25.548316 1.510793 1.869229 -40.020006 0.000000 0.000000 0.000000 -30.648297 1.284990 -4.094754 -47.689085 -16.909713 -1.021645 23.529848 -63.866141 -10.365684 0.000000 0.000000 0.000000 22.778338 7.094202 3.730976 52.374601 25.444742 3.523383 -36.466463 45.266406 -10.902841 0.000000 0.000000 0.000000 
-0.005838 0.650474 0.012460 -1.712313 -2.358929 16.991423 12.580358 1.511833 -53.106435 -1.206188 -0.759610 93.907420 7.533659 8.474210 -28.587583 0.000000 0.000000 0.000000 -16.751476 -0.520965 -40.392450 12.862667 -11.204485 92.098182 -9.832916 -26.020928 -13.035376 0.000000 0.000000 0.000000 -3.718122 0.134294 32.625465 3.617963 0.306927 -32.020863 2.548410 3.182288 26.864956 0.803109 2.088889 -39.663125 0.000000 0.000000 0.000000 -29.362860 1.894318 -4.176622 -50.533253 -18.088488 -0.648305 21.925841 -59.057487 -8.213195 0.000000 0.000000 0.000000 21.086540 5.785032 2.862216 56.372001 26.580969 4.641210 -35.224770 41.867110 -9.262634 0.000000 0.000000 0.000000 
-0.006446 0.700164 0.014544 -1.545167 -2.170654 16.989689 11.969319 0.965064 -48.875131 -1.489109 -0.255858 85.063344 7.131055 6.608978 -29.123169 0.000000 0.000000 0.000000 -15.924921 -0.156625 -35.615371 13.773637 -10.363033 81.822343 -9.473141 -24.978166 -12.656064 0.000000 0.000000 0.000000 -3.527797 0.048376 30.020228 3.964947 0.294587 -32.620868 2.307144 2.869156 28.243363 0.533990 2.198711 -40.576109 0.000000 0.000000 0.000000 -28.166399 2.279275 -4.107750 -52.429961 -18.227415 -0.702408 20.468072 -54.052150 -6.473462 0.000000 0.000000 0.000000 20.940727 5.430175 2.623489 58.380582 26.367585 4.747465 -32.870253 39.898463 -7.875618 0.000000 0.000000 0.000000 
